<svg 
          width="47" 
          height="51" fill="none" 
          xmlns="http://www.w3.org/2000/svg">
          <path d="M 21.084886074066162 49.971024579757554 C 3.3010157744089774 28.989409687659816 0 26.836054349290286 0 19.124995440245762 C 0 8.562519296999145 10.521268049875896 0 23.5 0 C 36.4787319501241 0 47 8.562519296999145 47 19.124995440245762 C 47 26.836054349290286 43.69898422559102 28.989409687659816 25.915113925933838 49.971024579757554 C 24.748069673776627 51.34304380061178 22.25180799762408 51.3429441509827 21.084886074066162 49.971024579757554 Z M 23.5 27.093743540348164 C 28.90781493981679 27.093743540348164 33.291666666666664 23.526035272828274 33.291666666666664 19.124995440245762 C 33.291666666666664 14.723955607663248 28.90781493981679 11.156247340143361 23.5 11.156247340143361 C 18.09218506018321 11.156247340143361 13.708333333333332 14.723955607663248 13.708333333333332 19.124995440245762 C 13.708333333333332 23.526035272828274 18.09218506018321 27.093743540348164 23.5 27.093743540348164 Z" fill="rgb(0,166.7627003788948,217.8125050663948)"/>
        </svg>