<svg 
          width="36" 
          height="34" fill="none" 
          xmlns="http://www.w3.org/2000/svg">
          <path d="M 17.522711328809947 8.820492469696681 L 6.0004742574919385 20.346109317170654 L 6.0004742574919385 32.785578780722126 C 6.0004742574919385 33.10766332549893 6.105823177859486 33.4165570347512 6.293345105712483 33.64430518640077 C 6.480867033565479 33.87205333805034 6.735201157729714 34 7.000397227733976 34 L 14.003607577990511 33.97798796682969 C 14.267936377817083 33.97638279074514 14.520987879031175 33.84772727845615 14.707429853915766 33.62015286925178 C 14.893871828800357 33.39257846004742 14.99853412312087 33.08460196106858 14.998530818949236 32.76356674755181 L 14.998530818949236 25.499051465054904 C 14.998530818949236 25.1769669202781 15.103879739316783 24.868073211025827 15.29140166716978 24.640325059376256 C 15.478923595022776 24.412576907726685 15.73325771918701 24.28463024577703 15.998453789191274 24.28463024577703 L 19.99814662376028 24.28463024577703 C 20.263342693764542 24.28463024577703 20.517675864327924 24.412576907726685 20.70519779218092 24.640325059376256 C 20.892719720033913 24.868073211025827 20.998069594002317 25.1769669202781 20.998069594002317 25.499051465054904 L 20.998069594002317 32.75825541512421 C 20.997658421818574 32.918054526929524 21.02321719585245 33.07637994051184 21.073283907847827 33.224158639352744 C 21.123350619843205 33.371937338193646 21.19694092908245 33.506263076802306 21.289833311630083 33.61943480860958 C 21.382725694177715 33.73260654041686 21.493094160846347 33.82239967084601 21.61461450526499 33.88366722699014 C 21.73613484968363 33.94493478313427 21.866417474759512 33.976471554457305 21.997992564244356 33.97647077418246 L 28.998702573058807 34 C 29.26389864306307 34 29.51823372082816 33.87205333805034 29.705755648681155 33.64430518640077 C 29.89327757653415 33.4165570347512 29.998625543300843 33.10766332549893 29.998625543300843 32.785578780722126 L 29.998625543300843 20.337761283123953 L 18.47888881342492 8.820492469696681 C 18.343458747783274 8.687911692643338 18.174747356697896 8.615613554205334 18.00079911751658 8.615613554205334 C 17.82685087833526 8.615613554205334 17.658141394451594 8.687911692643338 17.522711328809947 8.820492469696681 L 17.522711328809947 8.820492469696681 Z M 35.72318492937685 16.654268856892422 L 30.498587028421863 11.423908190156082 L 30.498587028421863 0.910815914458403 C 30.498587028421863 0.6692525149239434 30.419576057071847 0.43758309708241194 30.278934607457096 0.26677197882116244 C 30.138293157842345 0.0959608605599129 29.947541845793523 0 29.748644800740333 0 L 26.248914404893203 0 C 26.050017359840012 0 25.85926604779119 0.0959608605599129 25.71862459817644 0.26677197882116244 C 25.57798314856169 0.43758309708241194 25.498972177211673 0.6692525149239434 25.498972177211673 0.910815914458403 L 25.498972177211673 6.422011256520284 L 19.90377828313914 0.831119579851409 C 19.366829541251235 0.294481338206835 18.69305195026738 0.0010727478545713395 17.997675121115254 0.001072747854572418 C 17.302298291963126 0.0010727478545718787 16.628520700979276 0.294481338206835 16.09157195909137 0.831119579851409 L 0.2721657300540342 16.654268856892422 C 0.1962262847082898 16.730499381690347 0.13339840784483453 16.824155191584403 0.0872719559577326 16.929886010938773 C 0.041145504070630674 17.035616830293144 0.012624504506470964 17.151351141017265 0.003338589885938146 17.270473755156036 C -0.005947324734594671 17.389596369294807 0.004183839939195761 17.509773852157238 0.033153207678849696 17.62413946835989 C 0.062122575418503634 17.73850508456254 0.10936238796646842 17.844816242771874 0.17217343898983578 17.937000806489742 L 1.7658007026131102 20.289943077002942 C 1.8284406493330465 20.382449139344025 1.9054879330222017 20.459042196094458 1.992531941125531 20.51533767993925 C 2.07957594922886 20.571633163784043 2.174907404363635 20.606526250070065 2.2730687966860463 20.61801803544876 C 2.3712301890084575 20.629509820827455 2.4702939931900714 20.617375628593667 2.5645891076955483 20.582309574609702 C 2.658884222201025 20.547243520625738 2.746559059620026 20.489933914108025 2.822594401451762 20.41366260932882 L 17.522711328809947 5.708539253459465 C 17.658141394451594 5.575958476406122 17.82685087833526 5.503659179805791 18.00079911751658 5.503659179805791 C 18.174747356697896 5.503659179805791 18.343458747783274 5.575958476406122 18.47888881342492 5.708539253459465 L 33.1796339253464 20.41366260932882 C 33.25553630690891 20.48994755870793 33.343070160401496 20.547320420794566 33.43723584594091 20.582504145880492 C 33.53140153148033 20.617687870966417 33.63035255746081 20.629993129657066 33.72843503186245 20.618715249169085 C 33.826517506264096 20.607437368681104 33.921810139414056 20.57279737479388 34.00886615692816 20.516776117548297 C 34.09592217444226 20.460754860302714 34.17303403478932 20.384449602366256 34.2358002740225 20.292220024136103 L 35.82942750784575 17.9392777536229 C 35.892171054358585 17.846561665782488 35.939211694702955 17.739700299034958 35.96784076476246 17.624834365755564 C 35.99646983482196 17.50996843247617 36.006123224747014 17.389362945297233 35.99625044143773 17.269950265784626 C 35.98637765812845 17.15053758627202 35.95716976259365 17.034672321771758 35.91030811797229 16.929012756544875 C 35.86344647335093 16.82335319131799 35.7998539315268 16.729983076544617 35.72318492937685 16.654268856892422 L 35.72318492937685 16.654268856892422 Z" fill="rgb(0,0,0)"/>
        </svg>