<svg 
          width="30" 
          height="24" fill="none" 
          xmlns="http://www.w3.org/2000/svg">
          <path d="M 1.0714285714285714 4.408163265306122 L 28.928571428571427 4.408163265306122 C 29.520334814276012 4.408163265306122 30 3.969612238358478 30 3.4285714285714284 L 30 0.9795918367346939 C 30 0.43855102694764425 29.520334814276012 0 28.928571428571427 0 L 1.0714285714285714 0 C 0.479665185723986 0 0 0.43855102694764425 0 0.9795918367346939 L 0 3.4285714285714284 C 0 3.969612238358478 0.479665185723986 4.408163265306122 1.0714285714285714 4.408163265306122 Z M 1.0714285714285714 14.204081632653061 L 28.928571428571427 14.204081632653061 C 29.520334814276012 14.204081632653061 30 13.765530605705418 30 13.224489795918368 L 30 10.775510204081632 C 30 10.234469394294582 29.520334814276012 9.795918367346939 28.928571428571427 9.795918367346939 L 1.0714285714285714 9.795918367346939 C 0.479665185723986 9.795918367346939 0 10.234469394294582 0 10.775510204081632 L 0 13.224489795918368 C 0 13.765530605705418 0.479665185723986 14.204081632653061 1.0714285714285714 14.204081632653061 Z M 1.0714285714285714 24 L 28.928571428571427 24 C 29.520334814276012 24 30 23.561448973052354 30 23.020408163265305 L 30 20.57142857142857 C 30 20.03038776164152 29.520334814276012 19.591836734693878 28.928571428571427 19.591836734693878 L 1.0714285714285714 19.591836734693878 C 0.479665185723986 19.591836734693878 0 20.03038776164152 0 20.57142857142857 L 0 23.020408163265305 C 0 23.561448973052354 0.479665185723986 24 1.0714285714285714 24 Z" fill="rgb(255,255,255)"/>
        </svg>