<svg 
          width="20" 
          height="20" fill="none" 
          xmlns="http://www.w3.org/2000/svg">
          <path d="M 19.728005305678252 17.29128103742961 L 15.833188731823798 13.397129505984138 C 15.657394625139537 13.221365416255482 15.419095950915322 13.123718699739564 15.169077662127698 13.123718699739564 L 14.532312819232295 13.123718699739564 C 15.610516688464685 11.744947092334195 16.251188529033964 10.01074134741264 16.251188529033964 8.124206814124491 C 16.251188529033964 3.636363663454011 12.6142038481308 0 8.125594264516982 0 C 3.636984680903164 0 0 3.636363663454011 0 8.124206814124491 C 0 12.612049964794972 3.636984680903164 16.248413628248983 8.125594264516982 16.248413628248983 C 10.012450979790222 16.248413628248983 11.746952892017275 15.607851182804259 13.125959965758202 14.529831417568802 L 13.125959965758202 15.16648753246199 C 13.125959965758202 15.416463130467669 13.223623358360571 15.654721115041585 13.399417465044833 15.830485204770241 L 17.294234038899287 19.724636736215714 C 17.661448380181938 20.091788375415867 18.25524157621944 20.091788375415867 18.618549404151373 19.724636736215714 L 19.72409853153814 18.619276382046113 C 20.09131287282079 18.252124742845965 20.091313133610186 17.658432676629758 19.728005305678252 17.29128103742961 Z M 8.125594264516982 13.123718699739564 C 5.363673640940036 13.123718699739564 3.125228563275763 10.88956194505298 3.125228563275763 8.124206814124491 C 3.125228563275763 5.362757790251944 5.359766866799923 3.12469492850942 8.125594264516982 3.12469492850942 C 10.887514888093929 3.12469492850942 13.125959965758202 5.3588516831960025 13.125959965758202 8.124206814124491 C 13.125959965758202 10.885655837997039 10.891421662234041 13.123718699739564 8.125594264516982 13.123718699739564 Z" fill="rgb(0,0,0)"/>
        </svg>