<svg 
          width="516" 
          height="177" fill="none" 
          xmlns="http://www.w3.org/2000/svg">
          <path d="M 0 80.87733459472656 L 17.200000762939453 72.86711120605469 C 34.400001525878906 64.85688972473145 68.80000305175781 48.83644676208496 103.20000457763672 36.82111358642578 C 137.60000610351562 24.8057804107666 172.00000762939453 16.79555892944336 206.40000915527344 36.82111358642578 C 240.80001068115234 56.8466682434082 275.2000045776367 104.90800285339355 309.6000061035156 92.89266967773438 C 344.00000762939453 80.8773365020752 378.40001678466797 8.785337150096893 412.8000183105469 0.7751156687736511 C 447.2000198364258 -7.235105812549591 481.6000175476074 48.83644676208496 498.8000183105469 76.87222290039062 L 516 104.90800476074219 L 516 177 L 498.8000183105469 177 C 481.6000175476074 177 447.2000198364258 177 412.8000183105469 177 C 378.40001678466797 177 344.00000762939453 177 309.6000061035156 177 C 275.2000045776367 177 240.80001068115234 177 206.40000915527344 177 C 172.00000762939453 177 137.60000610351562 177 103.20000457763672 177 C 68.80000305175781 177 34.400001525878906 177 17.200000762939453 177 L 0 177 L 0 80.87733459472656 Z" fill="rgb(78.00000295042992,217.0000022649765,166.00000530481339)"/>
        </svg>