<svg 
          width="155" 
          height="153" fill="none" 
          xmlns="http://www.w3.org/2000/svg">
          <path d="M 75.70087432861328 0.013445752672851086 C 91.88167953491211 0.3452507434412837 106.53830623626709 8.152058601379395 119.6895523071289 17.59650993347168 C 132.9138240814209 27.093403816223145 145.03646993637085 38.54030895233154 150.64755249023438 53.83573913574219 C 156.39526510238647 69.50361347198486 156.41928815841675 86.93253421783447 150.903564453125 102.68378448486328 C 145.4699354171753 118.20059490203857 134.1546049118042 130.82229232788086 120.49325561523438 139.9473419189453 C 107.2394609451294 148.80016708374023 91.62605953216553 152.4384095966816 75.70087432861328 152.9151611328125 C 59.346588134765625 153.4047586619854 42.37999725341797 152.00156688690186 28.919219970703125 142.6887969970703 C 15.282936096191406 133.2546043395996 6.6265177726745605 118.11994171142578 2.2650651931762695 102.10896301269531 C -1.9505581855773926 86.6333236694336 0.13402128219604492 70.50041389465332 5.100485324859619 55.249717712402344 C 10.062458515167236 40.012813568115234 17.770912170410156 25.63289165496826 30.383342742919922 15.765189170837402 C 43.299187660217285 5.660101890563965 59.313011169433594 -0.3226051749661565 75.70087432861328 0.013445752672851086 Z" fill="rgb(185.9374898672104,255,231.5889698266983)"/>
        </svg>