<svg 
          width="518" 
          height="308" fill="none" 
          xmlns="http://www.w3.org/2000/svg">
          <path d="M 0 0 L 21.58333396911621 25.666665836916135 C 43.16666793823242 51.33333167383227 86.33333206176758 102.66666708154193 129.5 115.5 C 172.66666793823242 128.33333291845807 215.83333206176758 102.66666583691614 259 77 C 302.1666679382324 51.33333416308386 345.3333320617676 25.666665836916135 388.5 12.833332918458067 C 431.6666679382324 0 474.83335304260254 0 496.41668701171875 0 L 518 0 L 518 308 L 496.41668701171875 308 C 474.83335304260254 308 431.6666679382324 308 388.5 308 C 345.3333320617676 308 302.1666679382324 308 259 308 C 215.83333206176758 308 172.66666793823242 308 129.5 308 C 86.33333206176758 308 43.16666793823242 308 21.58333396911621 308 L 0 308 L 0 0 Z" fill="rgb(106.00000128149986,217.0000022649765,196.00000351667404)"/>
        </svg>